<mxfile host="app.diagrams.net" modified="2023-03-26T19:29:43.332Z" agent="Mozilla/5.0 (Macintosh; Intel Mac OS X 10.15; rv:109.0) Gecko/20100101 Firefox/111.0" etag="BdoJOdzf9Kw3yTX8EgAf" version="21.1.1" type="device">
  <diagram name="Page-1" id="se_wUFdqa6bid68x4ZOF">
    <mxGraphModel dx="1522" dy="968" grid="1" gridSize="10" guides="1" tooltips="1" connect="1" arrows="1" fold="1" page="1" pageScale="1" pageWidth="1100" pageHeight="850" math="0" shadow="0">
      <root>
        <mxCell id="0" />
        <mxCell id="1" parent="0" />
        <mxCell id="vbVDMNCbWoCy4ZSqHscz-1" value="User" style="shape=umlActor;verticalLabelPosition=bottom;verticalAlign=top;html=1;outlineConnect=0;" vertex="1" parent="1">
          <mxGeometry x="90" y="120" width="30" height="60" as="geometry" />
        </mxCell>
        <mxCell id="vbVDMNCbWoCy4ZSqHscz-2" value="" style="rounded=1;whiteSpace=wrap;html=1;align=right;" vertex="1" parent="1">
          <mxGeometry x="250" y="50" width="270" height="220" as="geometry" />
        </mxCell>
        <mxCell id="vbVDMNCbWoCy4ZSqHscz-13" style="edgeStyle=orthogonalEdgeStyle;rounded=0;orthogonalLoop=1;jettySize=auto;html=1;exitX=1;exitY=0.5;exitDx=0;exitDy=0;entryX=0.5;entryY=0;entryDx=0;entryDy=0;" edge="1" parent="1" source="vbVDMNCbWoCy4ZSqHscz-4" target="vbVDMNCbWoCy4ZSqHscz-5">
          <mxGeometry relative="1" as="geometry" />
        </mxCell>
        <mxCell id="vbVDMNCbWoCy4ZSqHscz-4" value="Swagger UI" style="rounded=0;whiteSpace=wrap;html=1;" vertex="1" parent="1">
          <mxGeometry x="270" y="70" width="120" height="60" as="geometry" />
        </mxCell>
        <mxCell id="vbVDMNCbWoCy4ZSqHscz-14" style="edgeStyle=orthogonalEdgeStyle;rounded=0;orthogonalLoop=1;jettySize=auto;html=1;entryX=0;entryY=0.5;entryDx=0;entryDy=0;entryPerimeter=0;" edge="1" parent="1" source="vbVDMNCbWoCy4ZSqHscz-5" target="vbVDMNCbWoCy4ZSqHscz-9">
          <mxGeometry relative="1" as="geometry">
            <Array as="points">
              <mxPoint x="500" y="180" />
              <mxPoint x="500" y="150" />
            </Array>
          </mxGeometry>
        </mxCell>
        <mxCell id="vbVDMNCbWoCy4ZSqHscz-5" value="REST Endpoint(s)" style="rounded=0;whiteSpace=wrap;html=1;" vertex="1" parent="1">
          <mxGeometry x="360" y="150" width="120" height="60" as="geometry" />
        </mxCell>
        <mxCell id="vbVDMNCbWoCy4ZSqHscz-6" style="edgeStyle=orthogonalEdgeStyle;rounded=0;orthogonalLoop=1;jettySize=auto;html=1;entryX=0;entryY=0.5;entryDx=0;entryDy=0;" edge="1" parent="1" source="vbVDMNCbWoCy4ZSqHscz-1" target="vbVDMNCbWoCy4ZSqHscz-4">
          <mxGeometry relative="1" as="geometry">
            <Array as="points">
              <mxPoint x="200" y="150" />
              <mxPoint x="200" y="100" />
            </Array>
          </mxGeometry>
        </mxCell>
        <mxCell id="vbVDMNCbWoCy4ZSqHscz-7" style="edgeStyle=orthogonalEdgeStyle;rounded=0;orthogonalLoop=1;jettySize=auto;html=1;entryX=0;entryY=0.5;entryDx=0;entryDy=0;" edge="1" parent="1" source="vbVDMNCbWoCy4ZSqHscz-1" target="vbVDMNCbWoCy4ZSqHscz-5">
          <mxGeometry relative="1" as="geometry">
            <Array as="points">
              <mxPoint x="200" y="150" />
              <mxPoint x="200" y="180" />
            </Array>
          </mxGeometry>
        </mxCell>
        <mxCell id="vbVDMNCbWoCy4ZSqHscz-9" value="&lt;div&gt;MariaDB&lt;/div&gt;" style="shape=cylinder3;whiteSpace=wrap;html=1;boundedLbl=1;backgroundOutline=1;size=15;" vertex="1" parent="1">
          <mxGeometry x="600" y="110" width="60" height="80" as="geometry" />
        </mxCell>
        <mxCell id="vbVDMNCbWoCy4ZSqHscz-15" value="Flask Hosted Python Application" style="text;html=1;strokeColor=none;fillColor=none;align=center;verticalAlign=middle;whiteSpace=wrap;rounded=0;" vertex="1" parent="1">
          <mxGeometry x="280" y="280" width="210" height="30" as="geometry" />
        </mxCell>
      </root>
    </mxGraphModel>
  </diagram>
</mxfile>
